# xmcd CD database file
#
# Track frame offsets:
#	182
#	17032
#	42072
#	61065
#	79142
#	100330
#	103685
#	124107
#	146112
#	162787
#
# Disc length: 2516 seconds
#
# Revision: 3
# Processed by: cddbd v1.5PL3 Copyright (c) Steve Scherf et al.
# Submitted via: CDex 1.51
#
DISCID=7c09d20a
DTITLE=George Harrison - Extra Texture
DYEAR=1975
DGENRE=Rock
TTITLE0=You
TTITLE1=The Answer's At The End
TTITLE2=This Guitar (Can't Keep From Crying)
TTITLE3=Ooh Baby (You Know That I Love You)
TTITLE4=World Of Stone
TTITLE5=A Bit More Of You
TTITLE6=Can't Stop Thinking About You
TTITLE7=Tired Of Midnight Blue
TTITLE8=Grey Cloudy Lies
TTITLE9=His Name Is Legs (Ladies And Gentlemen)
EXTD=YEAR: 1975
EXTT0=
EXTT1=
EXTT2=
EXTT3=
EXTT4=
EXTT5=
EXTT6=
EXTT7=
EXTT8=
EXTT9=
PLAYORDER=
